<?xml version="1.0" encoding="UTF-8" standalone="no"?>
<!-- Created with Inkscape (http://www.inkscape.org/) -->

<svg
   xmlns:dc="http://purl.org/dc/elements/1.1/"
   xmlns:cc="http://creativecommons.org/ns#"
   xmlns:rdf="http://www.w3.org/1999/02/22-rdf-syntax-ns#"
   xmlns:svg="http://www.w3.org/2000/svg"
   xmlns="http://www.w3.org/2000/svg"
   xmlns:sodipodi="http://sodipodi.sourceforge.net/DTD/sodipodi-0.dtd"
   xmlns:inkscape="http://www.inkscape.org/namespaces/inkscape"
   id="svg2"
   version="1.1"
   inkscape:version="0.48.0 r9654"
   width="3510"
   height="1062.9"
   xml:space="preserve"
   sodipodi:docname="chango_logo.ai"><metadata
     id="metadata8"><rdf:RDF><cc:Work
         rdf:about=""><dc:format>image/svg+xml</dc:format><dc:type
           rdf:resource="http://purl.org/dc/dcmitype/StillImage" /><dc:title></dc:title></cc:Work></rdf:RDF></metadata><defs
     id="defs6"><clipPath
       clipPathUnits="userSpaceOnUse"
       id="clipPath16"><path
         d="m 0,850.32 2808,0 L 2808,0 0,0 0,850.32 z"
         id="path18" /></clipPath></defs><sodipodi:namedview
     pagecolor="#ffffff"
     bordercolor="#666666"
     borderopacity="1"
     objecttolerance="10"
     gridtolerance="10"
     guidetolerance="10"
     inkscape:pageopacity="0"
     inkscape:pageshadow="2"
     inkscape:window-width="640"
     inkscape:window-height="480"
     id="namedview4"
     showgrid="false"
     inkscape:zoom="0.13646724"
     inkscape:cx="1755"
     inkscape:cy="531.45001"
     inkscape:window-x="0"
     inkscape:window-y="0"
     inkscape:window-maximized="0"
     inkscape:current-layer="g10" /><g
     id="g10"
     inkscape:groupmode="layer"
     inkscape:label="chango_logo"
     transform="matrix(1.25,0,0,-1.25,0,1062.9)"><g
       id="g12"><g
         id="g14"
         clip-path="url(#clipPath16)"><g
           id="g20"
           transform="translate(2087.6387,603.4727)"><path
             d="m 0,0 c -15.328,0 -28.728,-2.956 -39.827,-8.749 -11.429,-5.991 -20.781,-14.138 -28.554,-24.878 -8.215,-11.332 -14.579,-25.438 -18.961,-41.988 -4.582,-17.575 -6.937,-37.538 -6.937,-59.297 0,-32.759 3.997,-65.277 9.955,-80.978 6.318,-16.606 14.048,-29.312 22.949,-37.815 8.861,-8.399 17.969,-13.916 27.878,-16.857 11.605,-3.424 22.573,-5.177 32.606,-5.177 16.801,0 32.65,3.382 47.183,10.076 11.529,5.3 22.177,12.212 31.691,20.549 l 0,206.948 c -2.091,2.312 -4.471,4.868 -7.202,7.609 -5.264,5.242 -11.541,10.214 -18.586,14.701 -6.959,4.443 -15.152,8.302 -24.39,11.518 C 19.512,-1.475 10.175,0 0,0 m 464.315,-10.306 c -14.104,0 -27.138,-2.731 -38.724,-8.083 -11.517,-5.344 -21.252,-13.028 -29.733,-23.521 -8.959,-11.01 -16.091,-24.93 -21.225,-41.38 -5.418,-17.178 -8.159,-37.417 -8.159,-60.189 0,-22.474 2.741,-42.546 8.159,-59.726 5.134,-16.408 12.266,-30.126 21.225,-40.896 8.668,-10.497 18.548,-18.203 30.185,-23.544 11.572,-5.383 24.6,-8.094 38.729,-8.094 14.06,0 26.999,2.689 38.406,8.018 11.473,5.374 21.199,13.05 29.752,23.465 8.867,10.837 15.968,24.643 21.099,41.051 5.397,17.145 8.147,37.24 8.147,59.726 0,22.772 -2.75,43.022 -8.147,60.189 -5.151,16.45 -12.279,30.37 -21.218,41.391 -8.503,10.482 -18.256,18.175 -29.788,23.51 -11.546,5.352 -24.578,8.083 -38.708,8.083 m -1381.82,-157.75 c -28.244,0 -50.549,-5.452 -66.266,-16.211 -14.503,-9.921 -21.242,-24.354 -21.187,-45.517 0,-9.714 1.657,-18.061 4.884,-24.901 3.177,-6.77 7.448,-12.365 12.728,-16.693 5.66,-4.68 12.233,-8.114 19.495,-10.249 18.572,-5.506 37.255,-8.294 55.576,-8.294 35.677,0 61.13,10.65 70.737,15.394 l -0.329,31.734 -0.132,66.257 c -9.035,1.829 -18.945,3.536 -29.611,5.133 -15.058,2.225 -30.469,3.347 -45.895,3.347 m -242.979,-214.306 -127.831,0 0,304.732 c 0,27.11 -4.455,46.786 -13.264,58.53 -6.91,9.223 -19.712,13.721 -39.112,13.721 -18.786,0 -36.288,-5.027 -53.538,-15.399 -15.708,-9.436 -29.858,-22.308 -42.112,-38.253 l 0,-323.331 -127.789,0 0,612.376 127.789,0 0,-148.953 c 4.777,3.089 9.683,5.962 14.744,8.617 13.407,7.046 27.962,12.686 43.24,16.742 32.501,8.672 70.75,8.308 105.838,-1.107 19.81,-5.306 38.325,-14.847 55.036,-28.265 17.242,-13.881 31.255,-32.936 41.7,-56.65 10.146,-23.149 15.299,-52.398 15.299,-86.996 l 0,-315.764 z m 897.322,0 -127.832,0 0,310.105 c 0,27.792 -4.821,48.555 -13.566,58.509 C -412.687,-4.487 -425.393,0 -443.366,0 c -18.255,0 -35.675,-5.077 -53.271,-15.494 -15.857,-9.414 -30.117,-22.253 -42.371,-38.187 l 0,-328.681 -127.839,0 0,346.532 c 0,75.318 108.292,128.167 112.908,130.374 11.605,6.42 31.69,11.448 47.789,15.516 l 7.22,1.816 c 15.835,4.086 43.686,6.238 62.978,6.238 23.851,0 49.977,-3.583 68.181,-9.338 21.023,-6.617 39.608,-17.524 55.222,-32.405 15.549,-14.807 27.871,-34.011 36.625,-57.08 8.457,-22.28 12.762,-49.373 12.762,-80.515 l 0,-321.138 z m 727.934,-11.056 c -35.126,0 -67.239,6.171 -95.417,18.334 -28.441,12.258 -53.015,29.844 -73.062,52.284 -19.794,22.154 -35.115,49.002 -45.486,79.811 -10.096,30.005 -15.25,63.482 -15.25,99.51 0,36.405 5.307,70.12 15.779,100.227 10.673,30.655 26.086,57.456 45.773,79.685 20.089,22.654 44.687,40.355 73.161,52.6 28.169,12.146 59.815,18.312 94.045,18.312 34.812,0 66.788,-6.144 95.111,-18.278 28.706,-12.279 53.349,-30.029 73.291,-52.702 19.6,-22.302 34.774,-49.187 45.103,-79.882 10.151,-30.049 15.251,-63.691 15.251,-99.962 0,-36.096 -5.286,-69.67 -15.78,-99.795 -10.656,-30.669 -26.086,-57.425 -45.806,-79.526 -20.04,-22.408 -44.51,-40.005 -72.832,-52.249 -28.037,-12.177 -59.635,-18.369 -93.881,-18.369 m -1401.194,-2.365 c -54.205,0 -88.484,11.319 -89.914,11.815 -20.95,7.497 -39.153,18.452 -54.184,32.605 -15.029,14.104 -26.981,31.414 -35.55,51.402 -8.501,19.908 -12.865,42.336 -12.921,66.684 -0.054,26.57 4.883,50.906 14.68,72.279 9.798,21.407 23.678,39.773 41.248,54.629 17.44,14.689 38.507,26.052 62.637,33.683 23.758,7.554 50.345,11.374 79.008,11.374 20.646,0 39.961,-1.311 57.464,-3.964 10.741,-1.629 20.788,-3.457 30.032,-5.482 l 0,2.62 c -0.034,9.283 -1.635,18.334 -4.789,26.889 -2.946,8.073 -7.813,15.383 -14.442,21.753 -6.711,6.437 -15.813,11.727 -27.065,15.685 -11.625,4.114 -26.275,6.213 -43.512,6.213 -21.884,0 -44.157,-2.49 -66.141,-7.363 -22.33,-4.983 -46.853,-12.524 -72.911,-22.445 l -17.808,-6.772 -0.185,115.993 7.461,3.27 c 23.96,10.521 49.749,18.687 76.688,24.253 26.813,5.572 55.327,8.561 84.761,8.886 35.175,0 66.454,-4.382 93.067,-13.086 26.925,-8.821 49.894,-21.192 68.238,-36.763 18.633,-15.818 32.77,-34.785 42.048,-56.4 9.167,-21.367 13.847,-44.844 13.879,-69.785 l 0.333,-324.585 -128.638,0.398 c -34.118,-9.161 -68.926,-13.786 -103.484,-13.786 m -814.516,-2.939 c -47.889,0 -91.251,6.889 -128.899,20.457 -38.646,13.919 -71.685,34.378 -98.201,60.75 -26.615,26.405 -46.965,58.989 -60.496,96.781 -13.621,37.956 -19.821,102.205 -19.821,145.812 0,45.015 7.026,87.222 20.854,125.404 14.095,38.866 34.837,72.852 61.636,100.997 26.804,28.167 59.673,50.365 97.623,66.019 37.653,15.494 80.218,23.35 126.527,23.35 11.986,0 24.048,-0.495 35.788,-1.488 11.748,-1.01 23.205,-2.481 34.052,-4.365 11.088,-1.927 21.494,-4.241 30.953,-6.898 9.889,-2.808 18.674,-5.854 26.081,-9.057 l 19.859,-8.612 0,-124.494 -43.254,14.276 c -14.671,4.811 -31.023,8.941 -48.576,12.233 -16.962,3.188 -34.279,4.78 -51.483,4.78 -25.833,0 -50.18,-4.08 -72.334,-12.135 -21.304,-7.724 -40.045,-19.391 -55.603,-34.692 -15.686,-15.372 -28.339,-34.967 -37.581,-58.262 -9.404,-23.691 -14.184,-52.193 -14.184,-84.678 0,-34.608 4.917,-83.39 13.17,-105.092 8.362,-22.09 20.228,-40.39 35.225,-54.462 15.107,-14.203 33.734,-24.931 55.349,-31.846 23.047,-7.434 49.415,-11.163 78.302,-11.163 7.967,0 16.403,0.417 25.095,1.231 9.273,0.893 18.503,2.114 27.501,3.656 9.339,1.598 18.561,3.479 27.425,5.572 8.325,1.949 15.773,4.107 22.172,6.352 l 43.94,15.493 0,-126.352 -20.999,-8.229 c -17.668,-6.883 -38.27,-12.233 -61.235,-15.954 -22.342,-3.58 -45.52,-5.384 -68.886,-5.384 M -42.801,-598.604 c -29.7,0 -56.818,2.678 -80.592,7.975 -24.754,5.503 -44.046,12.155 -59.021,20.368 l -15.45,8.448 0,119.77 41.028,-16.891 c 9.042,-3.712 17.871,-6.849 26.294,-9.361 8.413,-2.49 17.245,-4.625 26.253,-6.341 8.985,-1.73 18.289,-2.996 27.584,-3.778 9.535,-0.815 20.328,-1.222 32.142,-1.222 41.48,0 72.908,9.096 93.398,27.065 19.105,16.759 28.676,42.902 29.148,79.867 -4.051,-2.091 -8.17,-4.021 -12.356,-5.781 -23.441,-9.921 -50.299,-14.933 -79.732,-14.933 -13.622,0 -28.333,1.509 -43.682,4.538 -15.836,3.107 -31.779,8.37 -47.469,15.702 -15.881,7.424 -31.155,17.331 -45.425,29.39 -14.787,12.446 -27.893,28.146 -38.991,46.699 -10.801,18.07 -19.545,39.41 -25.941,63.428 -7.082,26.602 -9.592,66.727 -9.592,93.001 0,42.482 5.968,80.174 17.705,112.031 11.915,32.225 28.068,59.527 47.967,81.115 20.262,21.946 43.803,38.578 70.053,49.47 25.877,10.712 53.035,16.158 80.671,16.158 19.93,-0.319 71.266,-5.098 100.073,-14.696 C 94.191,102.654 175.27,80.429 205.287,1.85 l 0.539,-1.409 0,-377.825 c 0,-36.371 -6.199,-68.853 -18.444,-96.513 -12.409,-28.092 -30.183,-51.856 -52.734,-70.666 -22.234,-18.43 -49.09,-32.315 -79.811,-41.187 -29.498,-8.558 -62.337,-12.854 -97.638,-12.854"
             style="fill:#275f99;fill-opacity:1;fill-rule:nonzero;stroke:none"
             id="path22" /></g></g></g></g></svg>