<?xml version="1.0" encoding="UTF-8" standalone="no"?>
<!-- Created with Inkscape (http://www.inkscape.org/) -->

<svg
   xmlns:dc="http://purl.org/dc/elements/1.1/"
   xmlns:cc="http://creativecommons.org/ns#"
   xmlns:rdf="http://www.w3.org/1999/02/22-rdf-syntax-ns#"
   xmlns:svg="http://www.w3.org/2000/svg"
   xmlns="http://www.w3.org/2000/svg"
   xmlns:sodipodi="http://sodipodi.sourceforge.net/DTD/sodipodi-0.dtd"
   xmlns:inkscape="http://www.inkscape.org/namespaces/inkscape"
   width="300"
   height="300"
   id="svg2"
   sodipodi:version="0.32"
   inkscape:version="0.48.2 r9819"
   sodipodi:docname="pyconca2.svg"
   inkscape:output_extension="org.inkscape.output.svg.inkscape"
   version="1.0"
   inkscape:export-filename="/Users/nicola/Downloads/MapleLeaf/pycon.png"
   inkscape:export-xdpi="90"
   inkscape:export-ydpi="90">
  <defs
     id="defs4">
    <inkscape:perspective
       sodipodi:type="inkscape:persp3d"
       inkscape:vp_x="0 : 526.18109 : 1"
       inkscape:vp_y="0 : 1000 : 0"
       inkscape:vp_z="744.09448 : 526.18109 : 1"
       inkscape:persp3d-origin="372.04724 : 350.78739 : 1"
       id="perspective10" />
    <inkscape:perspective
       id="perspective2790"
       inkscape:persp3d-origin="372.04724 : 350.78739 : 1"
       inkscape:vp_z="744.09448 : 526.18109 : 1"
       inkscape:vp_y="0 : 1000 : 0"
       inkscape:vp_x="0 : 526.18109 : 1"
       sodipodi:type="inkscape:persp3d" />
  </defs>
  <sodipodi:namedview
     id="base"
     pagecolor="#ffffff"
     bordercolor="#666666"
     borderopacity="1.0"
     gridtolerance="10000"
     guidetolerance="10"
     objecttolerance="10"
     inkscape:pageopacity="0.0"
     inkscape:pageshadow="2"
     inkscape:zoom="0.49497475"
     inkscape:cx="54.667251"
     inkscape:cy="237.62228"
     inkscape:document-units="px"
     inkscape:current-layer="layer1"
     showgrid="false"
     inkscape:window-width="860"
     inkscape:window-height="782"
     inkscape:window-x="-2"
     inkscape:window-y="0"
     inkscape:window-maximized="0" />
  <metadata
     id="metadata7">
    <rdf:RDF>
      <cc:Work
         rdf:about="">
        <dc:format>image/svg+xml</dc:format>
        <dc:type
           rdf:resource="http://purl.org/dc/dcmitype/StillImage" />
        <dc:title></dc:title>
      </cc:Work>
    </rdf:RDF>
  </metadata>
  <g
     inkscape:label="Layer 1"
     inkscape:groupmode="layer"
     id="layer1"
     transform="translate(32.468457,-178.33657)">
    <path
       style="fill:#cc0000;fill-rule:evenodd;stroke:none"
       d="M 148.57168,255.06213 C 131.43053,231.63216 115.96631,211.64204 81.563279,202.44206 71.512026,198.52247 61.460791,188.47265 51.40948,180.22469 c 7.657349,10.52403 14.942375,21.04801 16.752102,31.57201 0,8.96498 0,17.92985 0,26.89474 -18.613433,-2.10204 -37.226853,-9.16592 -55.840322,-14.03204 25.464018,21.05422 10.955105,32.45005 -1.116794,44.43468 -10.649304,8.93729 -21.801732,17.52331 -36.854636,23.38672 l 36.854636,7.01601 c 23.351426,14.11479 33.376416,18.61626 44.672247,18.70935 l -27.082545,30.84551 c -5.090463,8.01015 -16.972196,11.81153 -29.874603,19.43586 8.8876712,2.41217 20.501958,0.94557 26.80335,7.01601 13.684929,13.18324 9.374221,39.63612 5.584077,47.94272 L 20.69732,446.24829 42.475036,429.29294 c 9.85303,-4.0129 22.332277,-11.23794 31.82901,-6.72371 9.505638,4.51849 11.337649,12.9815 16.193658,19.58634 3.399304,-8.6917 6.863629,-15.58075 11.168096,-23.09435 14.56347,-13.25241 15.51749,-25.62786 23.45295,-38.88033 9.77016,27.22176 20.01584,43.62142 31.27059,53.78936 l 22.33607,21.048 11.1681,23.3867 c 0.61364,-11.69332 -2.22423,-26.23833 1.67521,-37.41868 5.53397,-15.86645 8.69744,-29.39529 18.70656,-39.17269 l 24.56973,-1.16931 c -5.68792,-7.04099 -9.679,-12.66785 -16.75207,-20.46338 -3.59556,-7.30835 -5.57353,-14.03199 -6.98006,-24.55601 17.27078,-0.28742 36.33983,0.68004 58.07394,3.50801 L 237.35787,332.82283 C 225.63596,314.67118 216.74074,290.71744 202.17845,280.78744 187.35556,270.6798 178.96823,262.69547 158.06452,262.07811 173.06473,193.38793 195.71576,134.11819 259.13559,120.58868 l -7.81771,-19.87869 c -40.76056,29.04824 -82.25883,55.55879 -102.7462,154.35214 z"
       id="path2796"
       sodipodi:nodetypes="ccccccccccccsscssccccccscccccczcccc"
       inkscape:connector-curvature="0" />
    <text
       xml:space="preserve"
       style="font-size:40px;font-style:normal;font-weight:normal;line-height:125%;letter-spacing:0px;word-spacing:0px;fill:#000000;fill-opacity:1;stroke:none;font-family:Sans"
       x="63.255253"
       y="311.39597"
       id="text3055"
       sodipodi:linespacing="125%"><tspan
         sodipodi:role="line"
         id="tspan3057"
         x="63.255253"
         y="311.39597"
         style="font-size:32px;font-weight:bold;fill:#ffffff;-inkscape-font-specification:Sans Bold">PyCon</tspan><tspan
         sodipodi:role="line"
         x="63.255253"
         y="351.39597"
         style="font-size:32px;font-weight:bold;fill:#ffffff;-inkscape-font-specification:Sans Bold"
         id="tspan3059">Canada</tspan></text>
  </g>
</svg>
