<?xml version="1.0" encoding="UTF-8" standalone="no"?>
<!-- Created with Inkscape (http://www.inkscape.org/) -->

<svg
   xmlns:dc="http://purl.org/dc/elements/1.1/"
   xmlns:cc="http://creativecommons.org/ns#"
   xmlns:rdf="http://www.w3.org/1999/02/22-rdf-syntax-ns#"
   xmlns:svg="http://www.w3.org/2000/svg"
   xmlns="http://www.w3.org/2000/svg"
   xmlns:sodipodi="http://sodipodi.sourceforge.net/DTD/sodipodi-0.dtd"
   xmlns:inkscape="http://www.inkscape.org/namespaces/inkscape"
   width="990"
   height="765"
   id="svg2"
   version="1.1"
   inkscape:version="0.48.2 r9819"
   sodipodi:docname="New document 1.2012_04_14_01_22_00.0.svg">
  <defs
     id="defs4" />
  <sodipodi:namedview
     id="base"
     pagecolor="#ffffff"
     bordercolor="#666666"
     borderopacity="1.0"
     inkscape:pageopacity="0.0"
     inkscape:pageshadow="2"
     inkscape:zoom="1.790547"
     inkscape:cx="369.05691"
     inkscape:cy="448.43471"
     inkscape:document-units="px"
     inkscape:current-layer="layer1"
     showgrid="false"
     inkscape:window-width="1278"
     inkscape:window-height="829"
     inkscape:window-x="0"
     inkscape:window-y="0"
     inkscape:window-maximized="0" />
  <metadata
     id="metadata7">
    <rdf:RDF>
      <cc:Work
         rdf:about="">
        <dc:format>image/svg+xml</dc:format>
        <dc:type
           rdf:resource="http://purl.org/dc/dcmitype/StillImage" />
        <dc:title></dc:title>
      </cc:Work>
    </rdf:RDF>
  </metadata>
  <g
     inkscape:label="Layer 1"
     inkscape:groupmode="layer"
     id="layer1"
     transform="translate(0,-287.36218)">
    <path
       inkscape:connector-curvature="0"
       style="font-size:194.18667603px;font-style:normal;font-weight:normal;line-height:125%;letter-spacing:0px;word-spacing:0px;fill:#000000;fill-opacity:1;stroke:#ffffff;stroke-opacity:1;font-family:Bitstream Vera Sans"
       id="path3002"
       d="m 589.52107,600.81001 c -14.09629,5e-5 -23.86251,1.61195 -29.29868,4.8357 -5.43625,3.22385 -8.15435,8.72327 -8.15432,16.49829 -3e-5,6.19478 2.02275,11.1253 6.06833,14.79156 4.10873,3.60309 9.67136,5.40462 16.68792,5.40461 9.67134,1e-5 17.41478,-3.41342 23.23034,-10.24031 5.87862,-6.89006 8.81796,-16.02416 8.81805,-27.40232 l 0,-3.88753 -17.35164,0 m 34.7981,-7.20615 -0.24752,47.22218 c 0,0 34.12201,-7.13017 43.47254,-3.03218 9.35053,4.09799 12.93059,7.25925 11.0468,13.79951 -1.88379,6.54026 -11.97911,6.73704 -21.87399,7.61139 -9.89489,0.87434 -35.98291,-5.75495 -35.98291,-5.75495 -6.93069,-1.82515 -10.14851,-9.83842 -13.86138,-15.37644 -3.98243,6.44762 -8.94455,11.2201 -14.88638,14.31748 -5.94198,3.03416 -13.21133,4.55124 -21.80808,4.55125 -10.87247,-10e-6 -19.53247,-3.03417 -25.98005,-9.1025 -6.38441,-6.13154 -9.5766,-14.31746 -9.57659,-24.55779 -1e-5,-11.94699 3.98233,-20.95466 11.94703,-27.02305 8.02787,-6.06827 19.97489,-9.10243 35.8411,-9.1025 l 24.46297,0 0,-1.70672 c -9e-5,-8.02782 -2.65498,-14.22257 -7.96469,-18.58427 -5.24665,-4.42474 -12.64243,-6.63715 -22.18735,-6.63724 -6.06838,9e-5 -11.97868,0.72703 -17.73091,2.18081 -5.7523,1.45396 -11.28333,3.63476 -16.5931,6.54242 l 0,-16.11901 c 6.38437,-2.46516 12.57912,-4.2983 18.58427,-5.49943 6.00508,-1.26413 11.85217,-1.89625 17.54128,-1.89635 15.3604,10e-5 26.83333,3.98244 34.41883,11.94703 7.58532,7.96477 11.37802,20.03822 11.37813,36.22036"
       sodipodi:nodetypes="csscscscccczzzcccscscsccccccccccc" />
    <path
       inkscape:connector-curvature="0"
       style="font-size:194.18667603px;font-style:normal;font-weight:normal;line-height:125%;letter-spacing:0px;word-spacing:0px;fill:#000000;fill-opacity:1;stroke:#ffffff;stroke-opacity:1;font-family:Bitstream Vera Sans"
       id="path3000"
       d="m 539.34329,530.30325 0.30488,11.59723 c 2.85256,2.14572 3.05092,3.98003 0.96069,8.99656 -1.95946,4.70268 -8.60316,16.96317 -10.78375,17.06166 -2.1806,0.0985 -10.11611,-11.87718 -11.86602,-16.769 -1.74992,-4.89181 -1.04606,-6.85012 0.60499,-9.29525 1.05248,-1.55867 1.03128,-10.90548 -2.63495,-12.39102 -7.26945,-2.97083 -12.26899,-3.6941 -20.48644,-3.69423 -16.18229,1.3e-4 -28.57179,4.96225 -37.16854,14.88638 -8.59684,9.86115 -12.89524,24.147 -12.89521,42.85761 -3e-5,18.64753 4.29837,32.93339 12.89521,42.8576 8.59675,9.86106 20.98625,14.79158 37.16854,14.79157 8.21745,10e-6 10.35744,-0.6234 17.62689,-3.59437 3.66623,-1.48546 4.42311,-19.61475 4.27957,-27.07853 l 10.84529,-16.30437 10.89185,15.16792 c -0.0798,7.97425 0.27625,11.14903 0.257,13.8888 l 0,20.00654 c -6.70057,4.55125 -13.81189,7.96469 -21.33398,10.24031 -7.45909,2.27562 -15.36056,3.41343 -23.70443,3.41344 -21.42886,-10e-6 -38.3064,-6.54242 -50.63266,-19.62727 -12.32632,-13.14803 -18.48946,-31.06856 -18.48945,-53.76164 -1e-5,-22.75616 6.16313,-40.67669 18.48945,-53.76165 12.32626,-13.14792 29.2038,-19.72194 50.63266,-19.72208 8.47029,1.4e-4 16.43497,1.13795 23.89406,3.41344 7.5221,2.21255 20.88949,7.1218 21.0612,16.79263"
       sodipodi:nodetypes="ccsssscccscscccccccscscccc" />
    <path
       inkscape:connector-curvature="0"
       style="font-size:194.18667603000000099px;font-style:normal;font-weight:normal;line-height:125%;letter-spacing:0px;word-spacing:0px;fill:#000000;fill-opacity:1;stroke:#ffffff;font-family:Bitstream Vera Sans;stroke-opacity:1"
       id="path2998"
       d="m 431.7712,590.09561 0,64.09677 -17.44646,0 0,-63.52786 c -9e-5,-10.05061 -1.95965,-17.57281 -5.8787,-22.56662 -3.91921,-4.99364 -9.7979,-7.49051 -17.63609,-7.4906 -9.41862,9e-5 -16.846,3.00265 -22.28217,9.00768 -5.43625,6.0052 -8.15436,14.19112 -8.15432,24.55779 l 0,60.01961 -17.54128,0 0,-106.19584 17.54128,0 0,16.49829 c 4.17194,-6.3843 9.07085,-11.15679 14.69675,-14.31748 5.689,-3.16048 12.23142,-4.74078 19.62726,-4.74088 12.1998,10e-5 21.42871,3.79281 27.68677,11.37812 6.25787,7.5223 9.38685,18.61596 9.38696,33.28102" />
    <path
       inkscape:connector-curvature="0"
       style="font-size:194.18667603000000099px;font-style:normal;font-weight:normal;line-height:125%;letter-spacing:0px;word-spacing:0px;fill:#000000;fill-opacity:1;stroke:#ffffff;font-family:Bitstream Vera Sans;stroke-opacity:1"
       id="path2996"
       d="m 301.96304,560.22803 c -9.35539,9e-5 -16.75117,3.66637 -22.18734,10.99885 -5.43625,7.26944 -8.15435,17.25689 -8.15433,29.9624 -2e-5,12.70562 2.68647,22.72468 8.05951,30.05722 5.43617,7.26937 12.86355,10.90405 22.28216,10.90403 9.29207,2e-5 16.65624,-3.66627 22.09253,-10.99885 5.43613,-7.33254 8.15423,-17.32 8.15432,-29.9624 -9e-5,-12.57908 -2.71819,-22.53493 -8.15432,-29.86758 -5.43629,-7.39569 -12.80046,-11.09358 -22.09253,-11.09367 m 0,-14.79156 c 15.17076,10e-5 27.08618,4.93062 35.74628,14.79156 8.65991,9.86113 12.98992,23.51486 12.99003,40.96125 -1.1e-4,17.38328 -4.33012,31.03702 -12.99003,40.96125 -8.6601,9.86105 -20.57552,14.79156 -35.74628,14.79157 -15.23409,-10e-6 -27.18111,-4.93052 -35.84109,-14.79157 -8.59682,-9.92423 -12.89522,-23.57797 -12.89521,-40.96125 -1e-5,-17.44639 4.29839,-31.10012 12.89521,-40.96125 8.65998,-9.86094 20.607,-14.79146 35.84109,-14.79156" />
    <path
       inkscape:connector-curvature="0"
       style="font-size:194.18667603000000099px;font-style:normal;font-weight:normal;line-height:125%;letter-spacing:0px;word-spacing:0px;fill:#000000;fill-opacity:1;stroke:#ffffff;font-family:Bitstream Vera Sans;stroke-opacity:1"
       id="path2994"
       d="m 272.44492,523.53357 0,20.19618 c -6.44772,-6.00501 -13.3378,-10.49304 -20.67026,-13.46412 -7.26946,-2.97083 -15.0129,-4.4563 -23.23034,-4.45643 -16.18229,1.3e-4 -28.57179,4.96225 -37.16855,14.88638 -8.59684,9.86115 -12.89524,24.147 -12.8952,42.85761 -4e-5,18.64753 4.29836,32.93339 12.8952,42.8576 8.59676,9.86106 20.98626,14.79158 37.16855,14.79157 8.21744,10e-6 15.96088,-1.48547 23.23034,-4.45644 7.33246,-2.97093 14.22254,-7.45896 20.67026,-13.46411 l 0,20.00654 c -6.70057,4.55125 -13.81189,7.96469 -21.33399,10.24031 -7.45909,2.27562 -15.36055,3.41343 -23.70442,3.41344 -21.42887,-10e-6 -38.3064,-6.54242 -50.63266,-19.62727 -12.32632,-13.14803 -18.48947,-31.06856 -18.48946,-53.76164 -1e-5,-22.75616 6.16314,-40.67669 18.48946,-53.76165 12.32626,-13.14792 29.20379,-19.72194 50.63266,-19.72208 8.47029,1.4e-4 16.43497,1.13795 23.89406,3.41344 7.52209,2.21255 14.5702,5.56277 21.14435,10.05067" />
    <path
       inkscape:connector-curvature="0"
       style="font-size:194.18667603px;font-style:normal;font-weight:normal;line-height:125%;letter-spacing:0px;word-spacing:0px;fill:#000000;fill-opacity:1;stroke:#ffffff;stroke-opacity:1;font-family:Bitstream Vera Sans"
       id="path2992"
       d="m 137.44072,664.05342 c -4.93058,12.64234 -9.73467,20.89148 -14.41229,24.74743 -4.67772,3.85588 -10.93568,5.78384 -18.77391,5.78388 l -39.24997,0.0617 6.930693,-14.60193 28.621387,-0.0617 c 4.80405,-0.0104 8.53356,-1.13784 11.18849,-3.41344 2.65486,-2.27564 5.59421,-7.64864 8.81805,-16.11901 l 3.12899,-7.96469 -30.943087,-68.46111 18.489457,0 21.17685,47.03231 21.17686,-46.10852 18.48946,0 -34.64098,79.10508"
       sodipodi:nodetypes="ccsccsccccccccc" />
    <path
       inkscape:connector-curvature="0"
       style="font-size:194.18667603px;font-style:normal;font-weight:normal;line-height:125%;letter-spacing:0px;word-spacing:0px;fill:#000000;fill-opacity:1;stroke:#ffffff;stroke-opacity:1;font-family:Bitstream Vera Sans"
       id="path2990"
       d="m 78.190454,528.36928 0,53.19273 24.083696,0 c 8.9128,8e-5 15.80288,-2.30715 20.67026,-6.92169 4.86723,-4.61438 7.30088,-11.1884 7.30097,-19.72208 -9e-5,-8.47028 -2.43374,-15.01269 -7.30097,-19.62727 -4.86738,-4.61434 -11.75746,-6.92157 -20.67026,-6.92169 l -24.083696,0 m -19.153178,-15.73974 43.236874,0 c 15.86609,1.4e-4 27.84472,3.60321 35.93592,10.80922 8.15421,7.14305 12.23137,17.6362 12.23148,31.47948 -1.1e-4,13.96989 -4.07727,24.52625 -12.23148,31.66911 -8.0912,7.143 -20.06983,10.71446 -35.93592,10.71441 l -24.083696,0 0,52.93022 -19.153178,3.9604 0,-141.56284"
       sodipodi:nodetypes="ccsscccccscccscccc" />
    <g
       id="g5023"
       transform="matrix(0.86890885,0,0,0.86890885,19.987822,91.539049)">
      <path
         d="m 156.41801,676.03937 0,10.6836 6.32812,0 c 2.12238,0 3.69139,-0.4362 4.70704,-1.3086 1.02862,-0.88541 1.54294,-2.23306 1.54296,-4.04297 -2e-5,-1.8229 -0.51434,-3.16405 -1.54296,-4.02343 -1.01565,-0.87239 -2.58466,-1.30858 -4.70704,-1.3086 l -6.32812,0 m 0,-11.99218 0,8.78906 5.83984,0 c 1.92707,2e-5 3.35936,-0.35806 4.29688,-1.07422 0.9505,-0.72915 1.42576,-1.83592 1.42578,-3.32031 -2e-5,-1.47133 -0.47528,-2.57159 -1.42578,-3.30078 -0.93752,-0.72915 -2.36981,-1.09373 -4.29688,-1.09375 l -5.83984,0 m -3.94531,-3.24219 10.07812,0 c 3.0078,3e-5 5.3255,0.62503 6.95313,1.875 1.62758,1.25002 2.44138,3.02737 2.4414,5.33203 -2e-5,1.78387 -0.41669,3.20314 -1.25,4.25781 -0.83335,1.05471 -2.05731,1.71226 -3.67187,1.97266 1.94008,0.41668 3.44399,1.28907 4.51172,2.61719 1.0807,1.31511 1.62107,2.96225 1.62109,4.9414 -2e-5,2.60417 -0.88544,4.61589 -2.65625,6.03516 -1.77085,1.41927 -4.29038,2.1289 -7.55859,2.1289 l -10.46875,0 0,-29.16015"
         style="font-size:40px;font-style:normal;font-weight:normal;line-height:125%;letter-spacing:0px;word-spacing:0px;fill:#000000;fill-opacity:1;stroke:none;font-family:Bitstream Vera Sans"
         id="path4936"
         inkscape:connector-curvature="0" />
      <path
         d="m 175.90188,681.33234 0,-13.24219 3.59375,0 0,13.10547 c -1e-5,2.07032 0.40364,3.62631 1.21094,4.66797 0.80728,1.02865 2.01821,1.54297 3.63281,1.54297 1.94009,0 3.47004,-0.61849 4.58984,-1.85547 1.1328,-1.23697 1.6992,-2.92317 1.69922,-5.05859 l 0,-12.40235 3.59375,0 0,21.875 -3.59375,0 0,-3.35937 c -0.87241,1.32813 -1.88804,2.31771 -3.04687,2.96875 -1.14585,0.63802 -2.48049,0.95703 -4.00391,0.95703 -2.51303,0 -4.42058,-0.78125 -5.72266,-2.34375 -1.30208,-1.5625 -1.95312,-3.84765 -1.95312,-6.85547"
         style="font-size:40px;font-style:normal;font-weight:normal;line-height:125%;letter-spacing:0px;word-spacing:0px;fill:#000000;fill-opacity:1;stroke:none;font-family:Bitstream Vera Sans"
         id="path4938"
         inkscape:connector-curvature="0" />
      <path
         d="m 199.18836,668.09015 3.59375,0 0,21.875 -3.59375,0 0,-21.875 m 0,-8.51562 3.59375,0 0,4.55078 -3.59375,0 0,-4.55078"
         style="font-size:40px;font-style:normal;font-weight:normal;line-height:125%;letter-spacing:0px;word-spacing:0px;fill:#000000;fill-opacity:1;stroke:none;font-family:Bitstream Vera Sans"
         id="path4940"
         inkscape:connector-curvature="0" />
      <path
         d="m 207.80686,659.57453 3.59375,0 0,30.39062 -3.59375,0 0,-30.39062"
         style="font-size:40px;font-style:normal;font-weight:normal;line-height:125%;letter-spacing:0px;word-spacing:0px;fill:#000000;fill-opacity:1;stroke:none;font-family:Bitstream Vera Sans"
         id="path4942"
         inkscape:connector-curvature="0" />
      <path
         d="m 230.81989,671.41047 0,-11.83594 3.59375,0 0,30.39062 -3.59375,0 0,-3.28125 c -0.75523,1.30209 -1.71226,2.27214 -2.8711,2.91016 -1.14584,0.625 -2.52605,0.9375 -4.14062,0.9375 -2.64324,0 -4.79818,-1.05469 -6.46484,-3.16406 -1.65365,-2.10937 -2.48048,-4.88281 -2.48047,-8.32031 -1e-5,-3.43749 0.82682,-6.21092 2.48047,-8.32032 1.66666,-2.10935 3.8216,-3.16404 6.46484,-3.16406 1.61457,2e-5 2.99478,0.31903 4.14062,0.95703 1.15884,0.62502 2.11587,1.58856 2.8711,2.89063 m -12.2461,7.63672 c 0,2.64323 0.54036,4.72005 1.6211,6.23046 1.09374,1.4974 2.59113,2.2461 4.49219,2.2461 1.90102,0 3.39842,-0.7487 4.49218,-2.2461 1.09374,-1.51041 1.64061,-3.58723 1.64063,-6.23046 -2e-5,-2.64322 -0.54689,-4.71353 -1.64063,-6.21094 -1.09376,-1.5104 -2.59116,-2.26561 -4.49218,-2.26563 -1.90106,2e-5 -3.39845,0.75523 -4.49219,2.26563 -1.08074,1.49741 -1.6211,3.56772 -1.6211,6.21094"
         style="font-size:40px;font-style:normal;font-weight:normal;line-height:125%;letter-spacing:0px;word-spacing:0px;fill:#000000;fill-opacity:1;stroke:none;font-family:Bitstream Vera Sans"
         id="path4944"
         inkscape:connector-curvature="0" />
      <path
         d="m 239.76042,668.09015 3.59375,0 0,21.875 -3.59375,0 0,-21.875 m 0,-8.51562 3.59375,0 0,4.55078 -3.59375,0 0,-4.55078"
         style="font-size:40px;font-style:normal;font-weight:normal;line-height:125%;letter-spacing:0px;word-spacing:0px;fill:#000000;fill-opacity:1;stroke:none;font-family:Bitstream Vera Sans"
         id="path4946"
         inkscape:connector-curvature="0" />
      <path
         d="m 266.14284,676.76203 0,13.20312 -3.59375,0 0,-13.08593 c -2e-5,-2.0703 -0.40367,-3.61978 -1.21094,-4.64844 -0.80731,-1.02863 -2.01825,-1.54295 -3.63281,-1.54297 -1.94012,2e-5 -3.47007,0.61851 -4.58985,1.85547 -1.1198,1.23699 -1.67969,2.92319 -1.67969,5.05859 l 0,12.36328 -3.61328,0 0,-21.875 3.61328,0 0,3.39844 c 0.85937,-1.31508 1.86849,-2.29815 3.02735,-2.94922 1.17186,-0.65102 2.51952,-0.97654 4.04297,-0.97656 2.513,2e-5 4.41404,0.78127 5.70312,2.34375 1.28904,1.5495 1.93357,3.83465 1.9336,6.85547"
         style="font-size:40px;font-style:normal;font-weight:normal;line-height:125%;letter-spacing:0px;word-spacing:0px;fill:#000000;fill-opacity:1;stroke:none;font-family:Bitstream Vera Sans"
         id="path4948"
         inkscape:connector-curvature="0" />
      <path
         d="m 285.26915,678.77375 c -2e-5,-2.60415 -0.54038,-4.62238 -1.6211,-6.05469 -1.06772,-1.43227 -2.57162,-2.14842 -4.51171,-2.14844 -1.9271,2e-5 -3.431,0.71617 -4.51172,2.14844 -1.06772,1.43231 -1.60157,3.45054 -1.60157,6.05469 0,2.59115 0.53385,4.60287 1.60157,6.03515 1.08072,1.4323 2.58462,2.14844 4.51172,2.14844 1.94009,0 3.44399,-0.71614 4.51171,-2.14844 1.08072,-1.43228 1.62108,-3.444 1.6211,-6.03515 m 3.59375,8.47656 c -2e-5,3.72396 -0.82685,6.49088 -2.48047,8.30078 -1.65366,1.82291 -4.18621,2.73437 -7.59766,2.73438 -1.26303,-1e-5 -2.45443,-0.0977 -3.57422,-0.29297 -1.11979,-0.1823 -2.20703,-0.46876 -3.26171,-0.85938 l 0,-3.49609 c 1.05468,0.57291 2.09634,0.99609 3.125,1.26953 1.02863,0.27343 2.07681,0.41015 3.14453,0.41016 2.35675,-1e-5 4.12108,-0.6185 5.29297,-1.85547 1.17185,-1.22396 1.75779,-3.07943 1.75781,-5.56641 l 0,-1.77734 c -0.74221,1.28906 -1.69273,2.2526 -2.85156,2.89062 -1.15887,0.63802 -2.54559,0.95703 -4.16016,0.95703 -2.6823,0 -4.84376,-1.02213 -6.48438,-3.0664 -1.64062,-2.04427 -2.46094,-4.7526 -2.46093,-8.125 -10e-6,-3.3854 0.82031,-6.10025 2.46093,-8.14453 1.64062,-2.04425 3.80208,-3.06639 6.48438,-3.06641 1.61457,2e-5 3.00129,0.31903 4.16016,0.95703 1.15883,0.63804 2.10935,1.60158 2.85156,2.89063 l 0,-3.32032 3.59375,0 0,19.16016"
         style="font-size:40px;font-style:normal;font-weight:normal;line-height:125%;letter-spacing:0px;word-spacing:0px;fill:#000000;fill-opacity:1;stroke:none;font-family:Bitstream Vera Sans"
         id="path4950"
         inkscape:connector-curvature="0" />
      <path
         d="m 324.30579,663.05109 0,4.16016 c -1.32814,-1.23696 -2.74741,-2.16144 -4.25781,-2.77344 -1.49741,-0.61195 -3.09246,-0.91794 -4.78515,-0.91797 -3.33335,3e-5 -5.88543,1.02216 -7.65625,3.06641 -1.77084,2.03127 -2.65626,4.97397 -2.65625,8.82812 -1e-5,3.84116 0.88541,6.78386 2.65625,8.82813 1.77082,2.03125 4.3229,3.04688 7.65625,3.04687 1.69269,1e-5 3.28774,-0.30598 4.78515,-0.91797 1.5104,-0.61197 2.92967,-1.53645 4.25781,-2.77343 l 0,4.12109 c -1.38023,0.9375 -2.84507,1.64063 -4.39453,2.10938 -1.53647,0.46875 -3.16408,0.70312 -4.88281,0.70312 -4.41407,0 -7.89063,-1.34765 -10.42969,-4.04297 -2.53906,-2.70833 -3.80859,-6.39973 -3.80859,-11.07422 0,-4.68748 1.26953,-8.37888 3.80859,-11.07422 2.53906,-2.7083 6.01562,-4.06247 10.42969,-4.0625 1.74477,3e-5 3.3854,0.23441 4.92188,0.70313 1.54945,0.45576 3.00127,1.14586 4.35546,2.07031"
         style="font-size:40px;font-style:normal;font-weight:normal;line-height:125%;letter-spacing:0px;word-spacing:0px;fill:#000000;fill-opacity:1;stroke:none;font-family:Bitstream Vera Sans"
         id="path4952"
         inkscape:connector-curvature="0" />
      <path
         d="m 336.62453,670.60969 c -1.92709,10e-6 -3.45053,0.75522 -4.57031,2.26562 -1.1198,1.49741 -1.6797,3.5547 -1.67969,6.17188 -10e-6,2.61719 0.55338,4.68099 1.66016,6.1914 1.11978,1.4974 2.64973,2.2461 4.58984,2.2461 1.91405,0 3.43097,-0.75521 4.55078,-2.26563 1.11977,-1.51041 1.67967,-3.5677 1.67969,-6.17187 -2e-5,-2.59114 -0.55992,-4.64192 -1.67969,-6.15235 -1.11981,-1.52342 -2.63673,-2.28514 -4.55078,-2.28515 m 0,-3.04688 c 3.12498,2e-5 5.57941,1.01565 7.36328,3.04688 1.78383,2.03126 2.67576,4.84376 2.67578,8.4375 -2e-5,3.58073 -0.89195,6.39323 -2.67578,8.4375 -1.78387,2.03125 -4.2383,3.04687 -7.36328,3.04687 -3.13803,0 -5.59897,-1.01562 -7.38281,-3.04687 -1.77084,-2.04427 -2.65626,-4.85677 -2.65625,-8.4375 -10e-6,-3.59374 0.88541,-6.40624 2.65625,-8.4375 1.78384,-2.03123 4.24478,-3.04686 7.38281,-3.04688"
         style="font-size:40px;font-style:normal;font-weight:normal;line-height:125%;letter-spacing:0px;word-spacing:0px;fill:#000000;fill-opacity:1;stroke:none;font-family:Bitstream Vera Sans"
         id="path4954"
         inkscape:connector-curvature="0" />
      <path
         d="m 366.88812,672.28937 c 0.89842,-1.61456 1.97264,-2.80597 3.22266,-3.57422 1.24997,-0.7682 2.72133,-1.15232 4.41406,-1.15234 2.27862,2e-5 4.03643,0.8008 5.27344,2.40234 1.23694,1.58856 1.85543,3.85419 1.85547,6.79688 l 0,13.20312 -3.61328,0 0,-13.08593 c -4e-5,-2.09634 -0.37113,-3.65233 -1.11329,-4.66797 -0.74221,-1.01561 -1.87502,-1.52342 -3.39843,-1.52344 -1.86201,2e-5 -3.33336,0.61851 -4.41407,1.85547 -1.08075,1.23699 -1.62111,2.92319 -1.62109,5.05859 l 0,12.36328 -3.61328,0 0,-13.08593 c -2e-5,-2.10936 -0.37111,-3.66535 -1.11328,-4.66797 -0.74221,-1.01561 -1.88804,-1.52342 -3.4375,-1.52344 -1.83595,2e-5 -3.29428,0.62502 -4.375,1.875 -1.08074,1.237 -1.6211,2.91668 -1.6211,5.03906 l 0,12.36328 -3.61328,0 0,-21.875 3.61328,0 0,3.39844 c 0.82031,-1.34112 1.80338,-2.33071 2.94922,-2.96875 1.14583,-0.638 2.5065,-0.95701 4.08203,-0.95703 1.58853,2e-5 2.93619,0.40367 4.04297,1.21094 1.11978,0.80731 1.9466,1.97918 2.48047,3.51562"
         style="font-size:40px;font-style:normal;font-weight:normal;line-height:125%;letter-spacing:0px;word-spacing:0px;fill:#000000;fill-opacity:1;stroke:none;font-family:Bitstream Vera Sans"
         id="path4956"
         inkscape:connector-curvature="0" />
      <path
         d="m 402.51846,672.28937 c 0.89841,-1.61456 1.97263,-2.80597 3.22265,-3.57422 1.24998,-0.7682 2.72133,-1.15232 4.41407,-1.15234 2.27861,2e-5 4.03642,0.8008 5.27343,2.40234 1.23695,1.58856 1.85544,3.85419 1.85547,6.79688 l 0,13.20312 -3.61328,0 0,-13.08593 c -3e-5,-2.09634 -0.37112,-3.65233 -1.11328,-4.66797 -0.74222,-1.01561 -1.87503,-1.52342 -3.39844,-1.52344 -1.862,2e-5 -3.33336,0.61851 -4.41406,1.85547 -1.08075,1.23699 -1.62112,2.92319 -1.62109,5.05859 l 0,12.36328 -3.61329,0 0,-13.08593 c -1e-5,-2.10936 -0.37111,-3.66535 -1.11328,-4.66797 -0.7422,-1.01561 -1.88803,-1.52342 -3.4375,-1.52344 -1.83595,2e-5 -3.29428,0.62502 -4.375,1.875 -1.08073,1.237 -1.6211,2.91668 -1.62109,5.03906 l 0,12.36328 -3.61328,0 0,-21.875 3.61328,0 0,3.39844 c 0.8203,-1.34112 1.80338,-2.33071 2.94922,-2.96875 1.14582,-0.638 2.5065,-0.95701 4.08203,-0.95703 1.58853,2e-5 2.93618,0.40367 4.04297,1.21094 1.11977,0.80731 1.94659,1.97918 2.48047,3.51562"
         style="font-size:40px;font-style:normal;font-weight:normal;line-height:125%;letter-spacing:0px;word-spacing:0px;fill:#000000;fill-opacity:1;stroke:none;font-family:Bitstream Vera Sans"
         id="path4958"
         inkscape:connector-curvature="0" />
      <path
         d="m 420.44154,681.33234 0,-13.24219 3.59375,0 0,13.10547 c -10e-6,2.07032 0.40364,3.62631 1.21094,4.66797 0.80728,1.02865 2.01821,1.54297 3.63281,1.54297 1.94009,0 3.47004,-0.61849 4.58984,-1.85547 1.1328,-1.23697 1.6992,-2.92317 1.69922,-5.05859 l 0,-12.40235 3.59375,0 0,21.875 -3.59375,0 0,-3.35937 c -0.87241,1.32813 -1.88804,2.31771 -3.04687,2.96875 -1.14585,0.63802 -2.48049,0.95703 -4.00391,0.95703 -2.51303,0 -4.42058,-0.78125 -5.72266,-2.34375 -1.30208,-1.5625 -1.95312,-3.84765 -1.95312,-6.85547"
         style="font-size:40px;font-style:normal;font-weight:normal;line-height:125%;letter-spacing:0px;word-spacing:0px;fill:#000000;fill-opacity:1;stroke:none;font-family:Bitstream Vera Sans"
         id="path4960"
         inkscape:connector-curvature="0" />
      <path
         d="m 461.64263,676.76203 0,13.20312 -3.59375,0 0,-13.08593 c -2e-5,-2.0703 -0.40366,-3.61978 -1.21094,-4.64844 -0.8073,-1.02863 -2.01824,-1.54295 -3.63281,-1.54297 -1.94011,2e-5 -3.47006,0.61851 -4.58984,1.85547 -1.1198,1.23699 -1.6797,2.92319 -1.67969,5.05859 l 0,12.36328 -3.61328,0 0,-21.875 3.61328,0 0,3.39844 c 0.85937,-1.31508 1.86848,-2.29815 3.02734,-2.94922 1.17187,-0.65102 2.51952,-0.97654 4.04297,-0.97656 2.51301,2e-5 4.41405,0.78127 5.70313,2.34375 1.28904,1.5495 1.93357,3.83465 1.93359,6.85547"
         style="font-size:40px;font-style:normal;font-weight:normal;line-height:125%;letter-spacing:0px;word-spacing:0px;fill:#000000;fill-opacity:1;stroke:none;font-family:Bitstream Vera Sans"
         id="path4962"
         inkscape:connector-curvature="0" />
      <path
         d="m 465.49563,668.09015 3.59375,0 0,21.875 -3.59375,0 0,-21.875 m 0,-8.51562 3.59375,0 0,4.55078 -3.59375,0 0,-4.55078"
         style="font-size:40px;font-style:normal;font-weight:normal;line-height:125%;letter-spacing:0px;word-spacing:0px;fill:#000000;fill-opacity:1;stroke:none;font-family:Bitstream Vera Sans"
         id="path4964"
         inkscape:connector-curvature="0" />
      <path
         d="m 478.31459,661.87922 0,6.21093 7.40234,0 0,2.79297 -7.40234,0 0,11.875 c -1e-5,1.78386 0.24088,2.92969 0.72266,3.4375 0.49478,0.50782 1.49087,0.76172 2.98828,0.76172 l 3.6914,0 0,3.00781 -3.6914,0 c -2.77345,0 -4.68751,-0.51432 -5.74219,-1.54296 -1.05469,-1.04167 -1.58204,-2.92969 -1.58203,-5.66407 l 0,-11.875 -2.63672,0 0,-2.79297 2.63672,0 0,-6.21093 3.61328,0"
         style="font-size:40px;font-style:normal;font-weight:normal;line-height:125%;letter-spacing:0px;word-spacing:0px;fill:#000000;fill-opacity:1;stroke:none;font-family:Bitstream Vera Sans"
         id="path4966"
         inkscape:connector-curvature="0" />
      <path
         d="m 489.54829,668.09015 3.59375,0 0,21.875 -3.59375,0 0,-21.875 m 0,-8.51562 3.59375,0 0,4.55078 -3.59375,0 0,-4.55078"
         style="font-size:40px;font-style:normal;font-weight:normal;line-height:125%;letter-spacing:0px;word-spacing:0px;fill:#000000;fill-opacity:1;stroke:none;font-family:Bitstream Vera Sans"
         id="path4968"
         inkscape:connector-curvature="0" />
      <path
         d="m 516.91367,678.12922 0,1.75781 -16.52343,0 c 0.15624,2.47397 0.89843,4.36198 2.22656,5.66406 1.34114,1.28907 3.20311,1.9336 5.58594,1.9336 1.38019,0 2.71482,-0.16927 4.0039,-0.50782 1.30207,-0.33854 2.59113,-0.84635 3.86719,-1.52343 l 0,3.39843 c -1.28908,0.54688 -2.6107,0.96354 -3.96484,1.25 -1.35419,0.28646 -2.72788,0.42969 -4.1211,0.42969 -3.48959,0 -6.25651,-1.01562 -8.30078,-3.04687 -2.03125,-2.03125 -3.04688,-4.77864 -3.04687,-8.24219 -1e-5,-3.58072 0.96354,-6.41926 2.89062,-8.51563 1.9401,-2.10935 4.55077,-3.16404 7.83203,-3.16406 2.9427,2e-5 5.26691,0.95054 6.97266,2.85156 1.71873,1.88804 2.5781,4.45965 2.57812,7.71485 m -3.59375,-1.05469 c -0.0261,-1.96613 -0.57944,-3.53514 -1.66015,-4.70703 -1.06773,-1.17186 -2.487,-1.7578 -4.25781,-1.75781 -2.00522,10e-6 -3.61329,0.56642 -4.82422,1.69921 -1.19793,1.13283 -1.88803,2.72788 -2.07032,4.78516 l 12.8125,-0.0195"
         style="font-size:40px;font-style:normal;font-weight:normal;line-height:125%;letter-spacing:0px;word-spacing:0px;fill:#000000;fill-opacity:1;stroke:none;font-family:Bitstream Vera Sans"
         id="path4970"
         inkscape:connector-curvature="0" />
      <path
         d="m 534.92794,668.73469 0,3.39843 c -1.01564,-0.52081 -2.07032,-0.91144 -3.16406,-1.17187 -1.09376,-0.2604 -2.22657,-0.39061 -3.39844,-0.39063 -1.78386,2e-5 -3.125,0.27346 -4.02343,0.82032 -0.88543,0.54689 -1.32813,1.3672 -1.32813,2.46093 0,0.83335 0.31901,1.4909 0.95703,1.97266 0.63802,0.46876 1.92057,0.91798 3.84766,1.34766 l 1.23047,0.27343 c 2.55207,0.54689 4.36196,1.32163 5.42969,2.32422 1.08071,0.98959 1.62107,2.37631 1.62109,4.16016 -2e-5,2.03125 -0.80731,3.63932 -2.42188,4.82422 -1.60157,1.18489 -3.8086,1.77734 -6.62109,1.77734 -1.17188,0 -2.39584,-0.11719 -3.67187,-0.35156 -1.26303,-0.22136 -2.59766,-0.5599 -4.00391,-1.01563 l 0,-3.71093 c 1.32812,0.6901 2.63671,1.21094 3.92578,1.5625 1.28906,0.33854 2.5651,0.50781 3.82813,0.50781 1.69269,0 2.99477,-0.28646 3.90625,-0.85938 0.91144,-0.58593 1.36717,-1.40624 1.36718,-2.46093 -10e-6,-0.97656 -0.33204,-1.72526 -0.99609,-2.2461 -0.65106,-0.52082 -2.08986,-1.02212 -4.31641,-1.5039 l -1.25,-0.29297 c -2.22657,-0.46874 -3.83464,-1.18489 -4.82422,-2.14844 -0.98958,-0.97655 -1.48437,-2.31118 -1.48437,-4.00391 0,-2.05727 0.72916,-3.64581 2.1875,-4.76562 1.45833,-1.11977 3.52864,-1.67967 6.21094,-1.67969 1.32811,2e-5 2.57811,0.0977 3.75,0.29297 1.17186,0.19533 2.25258,0.4883 3.24218,0.87891"
         style="font-size:40px;font-style:normal;font-weight:normal;line-height:125%;letter-spacing:0px;word-spacing:0px;fill:#000000;fill-opacity:1;stroke:none;font-family:Bitstream Vera Sans"
         id="path4972"
         inkscape:connector-curvature="0" />
    </g>
    <g
       id="g5044"
       transform="matrix(0.86890885,0,0,0.86890885,139.72152,49.92418)">
      <path
         d="m 404.95092,708.69825 3.98438,0 6.13281,24.64844 6.11328,-24.64844 4.43359,0 6.13282,24.64844 6.11328,-24.64844 4.0039,0 -7.32422,29.16015 -4.96093,0 -6.15235,-25.3125 -6.21093,25.3125 -4.96094,0 -7.30469,-29.16015"
         style="font-size:40px;font-style:normal;font-weight:normal;line-height:125%;letter-spacing:0px;word-spacing:0px;fill:#000000;fill-opacity:1;stroke:none;font-family:Bitstream Vera Sans"
         id="path4974"
         inkscape:connector-curvature="0" />
      <path
         d="m 444.23472,715.9834 3.59375,0 0,21.875 -3.59375,0 0,-21.875 m 0,-8.51562 3.59375,0 0,4.55078 -3.59375,0 0,-4.55078"
         style="font-size:40px;font-style:normal;font-weight:normal;line-height:125%;letter-spacing:0px;word-spacing:0px;fill:#000000;fill-opacity:1;stroke:none;font-family:Bitstream Vera Sans"
         id="path4976"
         inkscape:connector-curvature="0" />
      <path
         d="m 456.13895,709.77247 0,6.21093 7.40234,0 0,2.79297 -7.40234,0 0,11.875 c -1e-5,1.78386 0.24088,2.92969 0.72266,3.4375 0.49478,0.50782 1.49087,0.76172 2.98828,0.76172 l 3.6914,0 0,3.00781 -3.6914,0 c -2.77345,0 -4.68751,-0.51432 -5.74219,-1.54296 -1.05469,-1.04167 -1.58204,-2.92969 -1.58203,-5.66407 l 0,-11.875 -2.63672,0 0,-2.79297 2.63672,0 0,-6.21093 3.61328,0"
         style="font-size:40px;font-style:normal;font-weight:normal;line-height:125%;letter-spacing:0px;word-spacing:0px;fill:#000000;fill-opacity:1;stroke:none;font-family:Bitstream Vera Sans"
         id="path4978"
         inkscape:connector-curvature="0" />
      <path
         d="m 485.55624,724.65528 0,13.20312 -3.59375,0 0,-13.08593 c -2e-5,-2.0703 -0.40366,-3.61978 -1.21094,-4.64844 -0.8073,-1.02863 -2.01824,-1.54295 -3.63281,-1.54297 -1.94011,2e-5 -3.47006,0.61851 -4.58984,1.85547 -1.1198,1.23699 -1.6797,2.92319 -1.67969,5.05859 l 0,12.36328 -3.61328,0 0,-30.39062 3.61328,0 0,11.91406 c 0.85937,-1.31508 1.86848,-2.29815 3.02734,-2.94922 1.17187,-0.65102 2.51952,-0.97654 4.04297,-0.97656 2.51301,2e-5 4.41405,0.78127 5.70313,2.34375 1.28904,1.5495 1.93357,3.83465 1.93359,6.85547"
         style="font-size:40px;font-style:normal;font-weight:normal;line-height:125%;letter-spacing:0px;word-spacing:0px;fill:#000000;fill-opacity:1;stroke:none;font-family:Bitstream Vera Sans"
         id="path4980"
         inkscape:connector-curvature="0" />
      <path
         d="m 501.06165,711.94044 0,10.95703 4.96094,0 c 1.83592,10e-6 3.25519,-0.47525 4.25781,-1.42578 1.00259,-0.95051 1.50389,-2.30467 1.50391,-4.0625 -2e-5,-1.74477 -0.50132,-3.09243 -1.50391,-4.04297 -1.00262,-0.9505 -2.42189,-1.42576 -4.25781,-1.42578 l -4.96094,0 m -3.94531,-3.24219 8.90625,0 c 3.26821,3e-5 5.73566,0.74221 7.40234,2.22656 1.67967,1.47138 2.51951,3.63284 2.51953,6.48438 -2e-5,2.87762 -0.83986,5.05209 -2.51953,6.52343 -1.66668,1.47137 -4.13413,2.20705 -7.40234,2.20703 l -4.96094,0 0,11.71875 -3.94531,0 0,-29.16015"
         style="font-size:40px;font-style:normal;font-weight:normal;line-height:125%;letter-spacing:0px;word-spacing:0px;fill:#000000;fill-opacity:1;stroke:none;font-family:Bitstream Vera Sans"
         id="path4982"
         inkscape:connector-curvature="0" />
      <path
         d="m 529.28754,739.88965 c -1.01563,2.60417 -2.00521,4.30338 -2.96875,5.09766 -0.96355,0.79426 -2.25261,1.1914 -3.86718,1.19141 l -2.8711,0 0,-3.00782 2.10938,0 c 0.98958,0 1.7578,-0.23438 2.30469,-0.70312 0.54686,-0.46875 1.15233,-1.57552 1.8164,-3.32031 l 0.64453,-1.64063 -8.84765,-21.52344 3.80859,0 6.83594,17.10938 6.83594,-17.10938 3.80859,0 -9.60938,23.90625"
         style="font-size:40px;font-style:normal;font-weight:normal;line-height:125%;letter-spacing:0px;word-spacing:0px;fill:#000000;fill-opacity:1;stroke:none;font-family:Bitstream Vera Sans"
         id="path4984"
         inkscape:connector-curvature="0" />
      <path
         d="m 546.93093,709.77247 0,6.21093 7.40235,0 0,2.79297 -7.40235,0 0,11.875 c 0,1.78386 0.24088,2.92969 0.72266,3.4375 0.49478,0.50782 1.49088,0.76172 2.98828,0.76172 l 3.69141,0 0,3.00781 -3.69141,0 c -2.77344,0 -4.6875,-0.51432 -5.74219,-1.54296 -1.05469,-1.04167 -1.58203,-2.92969 -1.58203,-5.66407 l 0,-11.875 -2.63672,0 0,-2.79297 2.63672,0 0,-6.21093 3.61328,0"
         style="font-size:40px;font-style:normal;font-weight:normal;line-height:125%;letter-spacing:0px;word-spacing:0px;fill:#000000;fill-opacity:1;stroke:none;font-family:Bitstream Vera Sans"
         id="path4986"
         inkscape:connector-curvature="0" />
      <path
         d="m 575.43349,724.65528 0,13.20312 -3.59375,0 0,-13.08593 c -2e-5,-2.0703 -0.40367,-3.61978 -1.21094,-4.64844 -0.80731,-1.02863 -2.01825,-1.54295 -3.63281,-1.54297 -1.94012,2e-5 -3.47007,0.61851 -4.58985,1.85547 -1.1198,1.23699 -1.67969,2.92319 -1.67969,5.05859 l 0,12.36328 -3.61328,0 0,-30.39062 3.61328,0 0,11.91406 c 0.85937,-1.31508 1.86849,-2.29815 3.02735,-2.94922 1.17186,-0.65102 2.51952,-0.97654 4.04297,-0.97656 2.513,2e-5 4.41404,0.78127 5.70312,2.34375 1.28904,1.5495 1.93357,3.83465 1.9336,6.85547"
         style="font-size:40px;font-style:normal;font-weight:normal;line-height:125%;letter-spacing:0px;word-spacing:0px;fill:#000000;fill-opacity:1;stroke:none;font-family:Bitstream Vera Sans"
         id="path4988"
         inkscape:connector-curvature="0" />
      <path
         d="m 588.06795,718.50294 c -1.92709,1e-5 -3.45053,0.75522 -4.57031,2.26562 -1.1198,1.49741 -1.6797,3.5547 -1.67969,6.17188 -10e-6,2.61719 0.55338,4.68099 1.66016,6.1914 1.11978,1.4974 2.64973,2.2461 4.58984,2.2461 1.91405,0 3.43097,-0.75521 4.55078,-2.26563 1.11977,-1.51041 1.67967,-3.5677 1.67969,-6.17187 -2e-5,-2.59114 -0.55992,-4.64192 -1.67969,-6.15235 -1.11981,-1.52342 -2.63673,-2.28514 -4.55078,-2.28515 m 0,-3.04688 c 3.12498,2e-5 5.57941,1.01565 7.36328,3.04688 1.78383,2.03126 2.67576,4.84376 2.67578,8.4375 -2e-5,3.58073 -0.89195,6.39323 -2.67578,8.4375 -1.78387,2.03125 -4.2383,3.04687 -7.36328,3.04687 -3.13803,0 -5.59897,-1.01562 -7.38281,-3.04687 -1.77084,-2.04427 -2.65626,-4.85677 -2.65625,-8.4375 -1e-5,-3.59374 0.88541,-6.40624 2.65625,-8.4375 1.78384,-2.03123 4.24478,-3.04686 7.38281,-3.04688"
         style="font-size:40px;font-style:normal;font-weight:normal;line-height:125%;letter-spacing:0px;word-spacing:0px;fill:#000000;fill-opacity:1;stroke:none;font-family:Bitstream Vera Sans"
         id="path4990"
         inkscape:connector-curvature="0" />
      <path
         d="m 619.17899,724.65528 0,13.20312 -3.59375,0 0,-13.08593 c -2e-5,-2.0703 -0.40367,-3.61978 -1.21094,-4.64844 -0.80731,-1.02863 -2.01825,-1.54295 -3.63281,-1.54297 -1.94012,2e-5 -3.47007,0.61851 -4.58985,1.85547 -1.1198,1.23699 -1.67969,2.92319 -1.67969,5.05859 l 0,12.36328 -3.61328,0 0,-21.875 3.61328,0 0,3.39844 c 0.85937,-1.31508 1.86849,-2.29815 3.02735,-2.94922 1.17186,-0.65102 2.51952,-0.97654 4.04297,-0.97656 2.513,2e-5 4.41404,0.78127 5.70312,2.34375 1.28904,1.5495 1.93357,3.83465 1.9336,6.85547"
         style="font-size:40px;font-style:normal;font-weight:normal;line-height:125%;letter-spacing:0px;word-spacing:0px;fill:#000000;fill-opacity:1;stroke:none;font-family:Bitstream Vera Sans"
         id="path4992"
         inkscape:connector-curvature="0" />
    </g>
  </g>
</svg>
